<?xml version="1.0" encoding="UTF-8"?>
<!DOCTYPE svg PUBLIC "-//W3C//DTD SVG 1.1//EN" "http://www.w3.org/Graphics/SVG/1.1/DTD/svg11.dtd">
<!-- Creator: CorelDRAW X7 -->
<svg xmlns="http://www.w3.org/2000/svg" xml:space="preserve" width="45.7469mm" height="16.6571mm" version="1.1" style="shape-rendering:geometricPrecision; text-rendering:geometricPrecision; image-rendering:optimizeQuality; fill-rule:evenodd; clip-rule:evenodd"
viewBox="0 0 3866 1408"
 xmlns:xlink="http://www.w3.org/1999/xlink">
 <defs>
  <style type="text/css">
   <![CDATA[
    .str0 {stroke:black;stroke-width:10.4461}
    .str1 {stroke:black;stroke-width:10.4461}
    .fil1 {fill:none}
    .fil0 {fill:black}
   ]]>
  </style>
 </defs>
 <g id="Layer_x0020_1">
  <metadata id="CorelCorpID_0Corel-Layer"/>
  <g id="_1923616417952">
   <path class="fil0" d="M1177 537l0 4 11 11c-4,-4 -8,-9 -11,-15zm-151 26l0 312c0,54 -9,93 -26,120 -17,26 -48,47 -93,59l0 18c84,-8 151,-12 199,-12l0 -1013c-88,-4 -154,-8 -199,-14l0 18c48,11 79,33 95,64 16,33 24,104 24,213l0 120 0 115zm-628 -454l-10 -1 7 4 3 -3z"/>
   <path class="fil0" d="M1652 1018c59,-62 88,-141 88,-237 0,-103 -31,-186 -92,-250 121,44 182,125 182,242 0,58 -17,110 -51,155 -34,45 -76,75 -127,90zm-48 -540c39,-51 58,-112 58,-182 0,-56 -10,-106 -32,-150 -22,-45 -48,-75 -77,-91 63,14 111,41 145,82 34,41 50,87 50,137 0,45 -14,87 -42,127 -28,38 -61,64 -102,77zm-265 81l-96 0 0 171c0,120 13,196 39,228 22,17 56,26 100,26 75,0 128,-22 160,-65 30,-43 45,-94 45,-151 0,-47 -10,-86 -29,-119 -21,-34 -46,-57 -77,-71 -32,-12 -80,-19 -142,-19zm-96 -261l0 193 73 0c61,0 108,-17 142,-50 32,-33 49,-81 49,-144 0,-64 -18,-113 -53,-147 -36,-33 -78,-50 -128,-50 -27,0 -49,7 -66,20 -11,35 -17,94 -17,178zm-78 746l0 -1005 163 -13c81,0 145,25 192,75 48,51 71,116 71,195 0,98 -43,169 -128,212 138,32 206,121 206,268 0,74 -22,140 -67,195 -46,57 -120,85 -222,85 -37,0 -78,-3 -122,-8 -39,-2 -70,-4 -93,-4z"/>
   <path class="fil0" d="M1910 473l534 587 -106 0 -454 -505c-1,-2 -3,-3 -4,-5l-9 -9c-3,-5 -6,-9 -11,-13l-1 -1c1,-5 1,-9 2,-13 4,-4 8,-8 12,-13l37 -28zm-43 217l-4 5c1,-1 3,-3 4,-5zm712 370l-41 0 -573 -631 220 -177c76,-60 113,-106 113,-139 0,-25 -20,-45 -62,-62l0 -18c29,0 68,3 116,8 44,5 76,6 97,6 20,0 45,-3 75,-6 43,-4 84,-6 122,-8l0 18c-90,23 -188,77 -295,159l-65 50c-5,4 -10,7 -13,10l-202 162 384 425c116,129 203,195 262,197l0 18c-89,-8 -135,-12 -138,-12z"/>
   <path class="fil0" d="M867 473l-534 587 106 0 454 -505c1,-2 3,-3 4,-5l9 -9c3,-5 7,-9 11,-13l1 -1c-1,-5 -1,-9 -1,-13 -5,-4 -9,-8 -13,-13l-37 -28zm43 217l4 5c-1,-1 -3,-3 -4,-5zm-712 370l41 0 573 -631 -220 -177c-76,-60 -113,-106 -113,-139 0,-25 20,-45 62,-62l0 -18c-29,0 -68,3 -116,8 -44,5 -76,6 -97,6 -20,0 -44,-3 -75,-6 -43,-4 -84,-6 -122,-8l0 18c90,23 188,77 295,159l65 50c5,4 10,7 13,10l202 162 -383 425c-117,129 -204,195 -263,197l0 18c89,-8 135,-12 138,-12z"/>
   <path class="fil0 str0" d="M5 1379l0 -128 16 0 0 64 73 -64 21 0 -52 46 60 82 -20 0 -51 -72 -31 26 0 46 -16 0zm152 -49l56 0 -28 -57 -28 57zm-41 49l62 -128 14 0 63 128 -18 0 -17 -35 -70 0 -17 35 -17 0zm158 0l0 -128 16 0 0 113 83 0 0 15 -99 0zm123 0l0 -113 -54 0 0 -15 123 0 0 15 -53 0 0 113 -16 0zm85 -49l56 0 -28 -57 -28 57zm-41 49l62 -128 14 0 63 128 -17 0 -18 -35 -70 0 -17 35 -17 0zm173 -71l56 0c8,0 14,-2 18,-5 5,-4 7,-9 7,-16 0,-6 -2,-12 -7,-15 -4,-4 -9,-6 -17,-6l-57 0 0 42zm-16 71l0 -128 73 0c13,0 22,4 30,10 7,6 10,15 10,26 0,9 -3,17 -8,23 -6,7 -13,11 -22,13l32 56 -18 0 -31 -56 -50 0 0 56 -16 0zm155 -49l56 0 -28 -57 -28 57zm-41 49l63 -128 13 0 63 128 -17 0 -17 -35 -71 0 -17 35 -17 0zm831 0l0 -128 15 0 0 64 73 -64 21 0 -51 46 59 82 -19 0 -52 -72 -31 26 0 46 -15 0zm185 -12c15,0 26,-5 36,-15 9,-9 14,-22 14,-37 0,-15 -5,-27 -14,-37 -9,-10 -21,-14 -36,-14 -14,0 -26,4 -35,14 -10,10 -14,22 -14,37 0,15 4,28 14,37 9,10 21,15 35,15zm0 15c-19,0 -35,-6 -47,-19 -12,-12 -19,-28 -19,-48 0,-19 7,-35 19,-48 13,-12 28,-18 47,-18 19,0 35,6 48,19 12,12 18,28 18,47 0,20 -6,36 -18,48 -13,13 -29,19 -48,19zm94 -3l0 -128 8 0 83 96 0 -96 16 0 0 128 -8 0 -83 -95 0 95 -16 0zm133 -19l9 -14c9,7 18,12 28,16 10,4 19,5 29,5 12,0 21,-2 29,-7 7,-5 11,-12 11,-19 0,-7 -3,-12 -8,-16 -6,-4 -13,-6 -22,-7 -2,0 -6,0 -10,-1 -21,-1 -35,-3 -43,-7 -6,-3 -10,-6 -13,-11 -3,-4 -5,-10 -5,-15 0,-10 5,-19 14,-25 9,-7 21,-10 36,-10 10,0 21,1 31,5 10,3 20,9 29,15l-9 14c-8,-7 -16,-11 -24,-15 -9,-3 -18,-4 -27,-4 -10,0 -18,1 -24,5 -6,4 -9,9 -9,14 0,2 0,4 1,6 1,2 3,4 5,6 5,3 16,6 34,7 8,0 14,1 18,1 13,2 23,6 31,13 8,7 11,15 11,25 0,12 -5,22 -15,29 -11,8 -24,12 -41,12 -13,0 -24,-2 -35,-6 -11,-3 -21,-9 -31,-16zm175 19l0 -113 -54 0 0 -15 123 0 0 15 -53 0 0 113 -16 0zm91 -71l57 0c8,0 14,-2 18,-5 4,-4 6,-9 6,-16 0,-6 -2,-12 -6,-15 -4,-4 -10,-6 -18,-6l-57 0 0 42zm-15 71l0 -128 73 0c12,0 22,4 29,10 7,6 10,15 10,26 0,9 -2,17 -8,23 -5,7 -13,11 -22,13l32 56 -17 0 -32 -56 -50 0 0 56 -15 0zm154 -128l0 83c0,13 2,22 7,26 5,5 15,7 29,7 15,0 25,-2 30,-7 4,-4 7,-13 7,-26l0 -83 16 0 0 87c0,16 -4,27 -12,34 -9,7 -22,10 -41,10 -18,0 -32,-3 -40,-10 -8,-7 -12,-18 -12,-34l0 -87 16 0zm124 128l0 -128 16 0 0 64 73 -64 20 0 -51 46 59 82 -19 0 -51 -72 -31 26 0 46 -16 0zm126 -19l9 -14c9,7 19,12 28,16 10,4 20,5 29,5 12,0 22,-2 29,-7 7,-5 11,-12 11,-19 0,-7 -3,-12 -8,-16 -5,-4 -12,-6 -22,-7 -2,0 -5,0 -9,-1 -21,-1 -36,-3 -43,-7 -6,-3 -11,-6 -14,-11 -3,-4 -4,-10 -4,-15 0,-10 4,-19 13,-25 9,-7 21,-10 36,-10 11,0 21,1 31,5 11,3 21,9 30,15l-9 14c-8,-7 -16,-11 -25,-15 -9,-3 -18,-4 -27,-4 -9,0 -17,1 -24,5 -6,4 -9,9 -9,14 0,2 1,4 2,6 1,2 2,4 4,6 5,3 17,6 34,7 8,0 14,1 19,1 13,2 23,6 30,13 8,7 12,15 12,25 0,12 -5,22 -16,29 -10,8 -24,12 -40,12 -13,0 -25,-2 -36,-6 -11,-3 -21,-9 -31,-16zm153 19l0 -128 16 0 0 128 -16 0z"/>
   <path class="fil0 str1" d="M965 1302l61 0c6,0 11,-2 15,-5 3,-3 5,-7 5,-13 0,-6 -2,-10 -5,-13 -3,-3 -9,-5 -15,-5l-61 0 0 36zm0 62l66 0c8,0 13,-2 17,-6 5,-5 7,-10 7,-18 0,-7 -2,-13 -7,-17 -4,-4 -9,-7 -17,-7l-66 0 0 48zm-16 15l0 -128 75 0c13,0 22,3 29,8 6,6 9,14 9,24 0,5 -1,10 -3,14 -2,4 -5,7 -8,9 6,4 12,9 15,15 3,6 5,12 5,19 0,12 -4,21 -11,28 -8,7 -19,11 -32,11l-79 0zm176 -49l56 0 -28 -57 -28 57zm-41 49l62 -128 13 0 63 128 -17 0 -17 -35 -70 0 -17 35 -17 0zm167 0l0 -113 -54 0 0 -15 123 0 0 15 -53 0 0 113 -16 0zm89 -128l0 83c0,13 2,22 7,26 5,5 15,7 30,7 14,0 24,-2 29,-7 5,-4 7,-13 7,-26l0 -83 16 0 0 87c0,16 -4,27 -12,34 -9,7 -22,10 -41,10 -18,0 -32,-3 -40,-10 -8,-7 -12,-18 -12,-34l0 -87 16 0z"/>
   <path class="fil0" d="M1652 1018c59,-62 88,-141 88,-237 0,-103 -31,-186 -92,-250 121,44 182,125 182,242 0,58 -17,110 -51,155 -34,45 -76,75 -127,90zm-48 -540c39,-51 58,-112 58,-182 0,-56 -10,-106 -32,-150 -22,-45 -48,-75 -77,-91 63,14 111,41 145,82 34,41 50,87 50,137 0,45 -14,87 -42,127 -28,38 -61,64 -102,77z"/>
  </g>
  <rect class="fil1" x="5" width="3861" height="1408"/>
 </g>
</svg>
